<svg fill="none" xmlns="http://www.w3.org/2000/svg" viewBox="0 0 68 41"><g clip-path="url(#next_svg__a)"><path d="M16.467 11.032h12.524v.993H17.615v7.478h10.698v.994H17.615v8.21h11.507v.993H16.467V11.032Zm13.646 0h1.33l5.897 8.21 6.027-8.21L51.565.603 38.097 20.105l6.94 9.595h-1.383l-6.314-8.733L31 29.7h-1.357l6.993-9.595-6.523-9.073Zm15.42.993v-.993h14.271v.993H53.23V29.7h-1.148V12.025h-6.548ZM.8 11.032h1.435l19.788 29.556L13.845 29.7 2 12.444 1.948 29.7H.8V11.032Zm58.889 17.375a.405.405 0 0 1-.41-.416c0-.234.175-.416.41-.416.237 0 .41.182.41.416a.404.404 0 0 1-.41.416Zm1.128-1.094h.614c.009.332.251.555.609.555.4 0 .625-.24.625-.689v-2.846h.626v2.849c0 .81-.47 1.275-1.246 1.275-.728 0-1.228-.452-1.228-1.144Zm3.292-.036h.62c.053.382.427.625.966.625.502 0 .871-.26.871-.617 0-.307-.235-.491-.768-.617l-.52-.125c-.728-.17-1.06-.522-1.06-1.114 0-.717.586-1.194 1.466-1.194.818 0 1.415.477 1.452 1.155h-.61c-.058-.371-.382-.603-.85-.603-.495 0-.824.238-.824.6 0 .288.212.453.737.575l.444.11c.826.192 1.167.527 1.167 1.132 0 .77-.598 1.253-1.553 1.253-.893 0-1.494-.46-1.538-1.18Z" fill="#fff"/></g><defs><clipPath id="next_svg__a"><path fill="#fff" transform="translate(.8 .603)" d="M0 0h66.4v40H0z"/></clipPath></defs></svg>