<svg fill="none" xmlns="http://www.w3.org/2000/svg" viewBox="0 0 46 28"><g clip-path="url(#node_svg__a)" fill="#fff"><path d="M22.597 28a.87.87 0 0 1-.433-.116l-1.379-.816c-.206-.115-.105-.156-.037-.18.274-.095.33-.117.623-.284.03-.017.071-.01.103.008l1.059.628a.14.14 0 0 0 .127 0l4.13-2.383a.13.13 0 0 0 .062-.112v-4.764a.133.133 0 0 0-.064-.114l-4.127-2.38a.127.127 0 0 0-.127 0l-4.126 2.38a.132.132 0 0 0-.065.113v4.764c0 .046.024.09.064.11l1.13.654c.614.307.99-.055.99-.419v-4.702c0-.067.052-.119.12-.119h.522c.065 0 .119.052.119.12v4.703c0 .819-.447 1.29-1.223 1.29-.238 0-.427 0-.952-.26l-1.083-.623a.873.873 0 0 1-.433-.754V19.98c0-.31.166-.6.433-.753l4.133-2.384a.905.905 0 0 1 .869 0l4.127 2.386a.871.871 0 0 1 .433.752v4.764a.874.874 0 0 1-.433.753l-4.127 2.384a.868.868 0 0 1-.436.116"/><path d="M23.872 24.718c-1.806 0-2.185-.83-2.185-1.525 0-.066.053-.12.12-.12h.533a.12.12 0 0 1 .117.102c.081.543.32.817 1.413.817.87 0 1.24-.196 1.24-.658 0-.265-.105-.463-1.457-.595-1.13-.111-1.83-.36-1.83-1.265 0-.833.704-1.329 1.88-1.329 1.323 0 1.978.459 2.06 1.445a.12.12 0 0 1-.12.13h-.536a.119.119 0 0 1-.116-.093c-.129-.571-.44-.754-1.29-.754-.949 0-1.06.33-1.06.578 0 .301.13.389 1.412.558 1.27.169 1.872.407 1.872 1.299 0 .899-.75 1.414-2.059 1.414l.006-.005Zm5.023-5.048h.139c.113 0 .135-.08.135-.126 0-.122-.084-.122-.13-.122h-.143l-.001.248Zm-.168-.391h.306c.106 0 .313 0 .313.236 0 .164-.106.198-.169.219.123.008.131.089.148.202.008.072.022.195.046.236h-.189c-.005-.041-.034-.269-.034-.281-.012-.05-.03-.076-.093-.076H28.9v.358h-.172v-.894Zm-.37.444c0 .37.3.67.666.67a.667.667 0 1 0-.666-.67Zm1.463.003a.798.798 0 0 1-.796.795.797.797 0 0 1-.796-.796.795.795 0 1 1 1.59 0"/><path fill-rule="evenodd" clip-rule="evenodd" d="M9.811 9.358c0-.19-.1-.365-.264-.46L5.17 6.38a.511.511 0 0 0-.24-.07h-.046a.52.52 0 0 0-.242.07L.265 8.9a.533.533 0 0 0-.265.46l.01 6.783a.26.26 0 0 0 .13.229c.081.05.183.05.263 0l2.603-1.49a.534.534 0 0 0 .264-.46v-3.168c0-.19.1-.364.264-.458l1.108-.638a.526.526 0 0 1 .528 0l1.107.637a.527.527 0 0 1 .265.458v3.17c0 .187.101.36.265.458l2.6 1.49a.258.258 0 0 0 .265 0 .265.265 0 0 0 .131-.23l.008-6.782Zm20.656 3.532c0 .047-.025.091-.066.114l-1.503.867a.133.133 0 0 1-.132 0l-1.504-.867a.131.131 0 0 1-.066-.114v-1.736c0-.047.025-.09.065-.114l1.503-.868a.134.134 0 0 1 .133 0l1.504.868a.132.132 0 0 1 .066.114v1.736ZM30.874.033a.265.265 0 0 0-.394.232v6.717a.185.185 0 0 1-.277.16l-1.097-.631a.528.528 0 0 0-.528 0l-4.379 2.527a.528.528 0 0 0-.264.457v5.056c0 .189.1.362.264.457l4.379 2.53a.53.53 0 0 0 .529 0l4.379-2.53a.53.53 0 0 0 .264-.458V1.95a.53.53 0 0 0-.272-.463L30.874.033ZM45.455 11.11a.529.529 0 0 0 .263-.457V9.426c0-.188-.1-.362-.263-.457l-4.351-2.526a.528.528 0 0 0-.53 0L36.196 8.97a.528.528 0 0 0-.265.458v5.054c0 .19.103.366.267.46l4.35 2.479c.16.092.356.093.519.003l2.631-1.462a.265.265 0 0 0 .002-.46l-4.405-2.528a.262.262 0 0 1-.133-.229V11.16c0-.095.05-.182.132-.229l1.37-.79a.261.261 0 0 1 .264 0l1.372.79a.264.264 0 0 1 .132.228v1.247c0 .094.05.182.132.23a.266.266 0 0 0 .265-.002l2.626-1.525Z"/><path fill-rule="evenodd" clip-rule="evenodd" d="M40.775 10.873a.1.1 0 0 1 .101 0l.84.485c.032.018.051.051.051.088v.97c0 .036-.02.07-.05.088l-.84.485a.1.1 0 0 1-.102 0l-.84-.485a.101.101 0 0 1-.052-.088v-.97a.1.1 0 0 1 .051-.088l.84-.485Z"/><path d="M21.614 14.793V9.22l-4.826-2.784-4.826 2.784v5.573l4.826 2.787 4.826-2.787Z"/><path d="m16.786 6.434 4.826 8.357-4.826 2.787-4.824-8.358 4.824-2.786ZM11.962 14.794l1.657-2.703-1.657-2.87v5.573Z"/><path d="m20.004 12.007 1.608-2.787-4.824-2.784 3.216 5.57Z"/></g><defs><clipPath id="node_svg__a"><path fill="#fff" d="M0 0h45.718v28H0z"/></clipPath></defs></svg>