<svg fill="none" xmlns="http://www.w3.org/2000/svg" viewBox="0 0 41 36"><path fill-rule="evenodd" clip-rule="evenodd" d="M31.85 11.048c.424.123.846.255 1.264.4 4.242 1.462 6.984 3.753 6.984 6.122 0 2.47-2.93 4.886-7.433 6.38-.238.08-.482.155-.73.229.088.357.167.708.235 1.051.889 4.497.204 8.193-1.903 9.415-2.04 1.183-5.337.02-8.676-2.856a25.78 25.78 0 0 1-1.062-.97c-.274.265-.547.518-.82.756-3.446 3.017-6.986 4.27-9.095 3.051-2.042-1.18-2.683-4.62-1.862-8.953.09-.471.193-.94.309-1.405a22.281 22.281 0 0 1-1.062-.332C3.667 22.453.815 20.008.815 17.57c0-2.36 2.657-4.636 6.815-6.088.465-.163.951-.315 1.454-.458a26.283 26.283 0 0 1-.29-1.303C7.932 5.31 8.539 1.787 10.586.6c2.135-1.238 5.69.091 9.238 3.246.22.196.438.397.651.602.318-.308.644-.608.978-.9 3.385-2.95 6.736-4.183 8.786-3 2.137 1.234 2.763 4.983 1.806 9.636-.06.29-.125.577-.196.864Zm-.372 11.514c.224-.067.445-.136.66-.207 3.888-1.29 6.283-3.264 6.283-4.785 0-1.428-2.218-3.28-5.853-4.534-.376-.13-.766-.252-1.168-.369a39.466 39.466 0 0 1-1.912 4.911c.821 1.732 1.492 3.408 1.99 4.984Zm-.765 8.186c.26-1.405.204-3.203-.189-5.191-.061-.31-.133-.628-.213-.952a39.119 39.119 0 0 1-5.32.821c-1.08 1.565-2.186 2.975-3.293 4.187.331.319.66.62.988.902 2.855 2.46 5.503 3.393 6.74 2.676.583-.338 1.053-1.18 1.287-2.443Zm-19.26 2.422c.583.337 1.546.324 2.755-.103 1.346-.477 2.874-1.423 4.398-2.757.255-.224.504-.454.748-.69a40.893 40.893 0 0 1-3.372-4.172c-1.903-.155-3.684-.412-5.293-.768-.108.433-.204.868-.287 1.306-.703 3.706-.188 6.469 1.051 7.184ZM3.96 19.908c1.085.93 2.666 1.782 4.582 2.438.32.109.644.21.97.304.496-1.62 1.15-3.321 1.938-5.04a40.343 40.343 0 0 1-1.914-4.967c-.455.128-.906.27-1.353.426-3.556 1.241-5.689 3.068-5.689 4.5 0 .674.492 1.504 1.466 2.34Zm7.467-17.854c-1.234.715-1.724 3.566-.986 7.344.08.406.17.81.27 1.212a40.954 40.954 0 0 1 5.242-.816A40.261 40.261 0 0 1 19.3 5.647c-.197-.188-.394-.37-.59-.545-3.063-2.723-5.969-3.81-7.283-3.048Zm14.765 9.567c.412.647.81 1.303 1.194 1.967.39.675.767 1.357 1.13 2.047.497-1.165.919-2.3 1.257-3.387a36.82 36.82 0 0 0-3.581-.627Zm-3.404-1.978a35.922 35.922 0 0 0-2.312-2.795 37.035 37.035 0 0 0-2.331 2.794 49.348 49.348 0 0 1 4.643 0Zm-10.375 5.99a49.677 49.677 0 0 1 2.313-4.015c-1.245.155-2.44.36-3.561.612a37.13 37.13 0 0 0 1.248 3.404Zm-1.271 7.426c1.12.244 2.333.44 3.62.583a49.658 49.658 0 0 1-2.347-4.056 37.747 37.747 0 0 0-1.273 3.473Zm7.017 2.519a37.775 37.775 0 0 0 2.364 2.832c.768-.847 1.54-1.8 2.306-2.84-.78.034-1.57.052-2.372.052-.78 0-1.546-.015-2.298-.044Zm11.692-2.592a35.694 35.694 0 0 0-1.319-3.46 53.333 53.333 0 0 1-1.14 2.084c-.388.675-.79 1.343-1.205 2.002a35.574 35.574 0 0 0 3.664-.626Zm-5.796.83c.66-.995 1.29-2.01 1.884-3.045a50.713 50.713 0 0 0 1.688-3.185 55.142 55.142 0 0 0-1.693-3.156 50.635 50.635 0 0 0-1.893-3.026 47.142 47.142 0 0 0-7.16-.001 47.7 47.7 0 0 0-3.576 6.208 47.3 47.3 0 0 0 3.596 6.218c1.145.075 2.334.113 3.556.113 1.228 0 2.432-.043 3.598-.126Zm6.347-13.97c.826-4.018.314-7.082-1.001-7.842-1.235-.713-3.945.285-6.846 2.812-.308.27-.609.546-.903.83a39.48 39.48 0 0 1 3.32 4.15 40.14 40.14 0 0 1 5.253.831c.063-.26.122-.52.177-.782Z" fill="#fff"/><path d="M20.457 14.057a3.51 3.51 0 0 1 3.508 3.513 3.51 3.51 0 0 1-3.508 3.513 3.51 3.51 0 0 1-3.508-3.513 3.51 3.51 0 0 1 3.508-3.513Z" fill="#fff"/></svg>